<svg id="Capa_1" data-name="Capa 1" xmlns="http://www.w3.org/2000/svg" viewBox="0 0 50 50"><defs><style>.cls-1{fill:#80d1f9;}</style></defs><path class="cls-1" d="M44.64,42.8a5.14,5.14,0,0,1-.58-2.72,1.83,1.83,0,0,0,0-.19,4.62,4.62,0,0,1,.71-2.26l.14-.2h0c.24-.35.48-.7.7-1.06a23.11,23.11,0,0,0,3-7.36,25.51,25.51,0,0,0,.52-4.87,24.11,24.11,0,0,0-6-15.28C36.09.82,26.19.58,24.81.57A24.76,24.76,0,0,0,7.18,7.73,24.07,24.07,0,0,0,.43,24.14,23.65,23.65,0,0,0,4.65,37.38c8.24,12.07,24.37,12,27.3,12A41.84,41.84,0,0,0,49.57,45.2,5.16,5.16,0,0,1,44.64,42.8ZM38.48,31.08c-.11,3-2.65,5.61-6.37,7a14.66,14.66,0,0,1-7.46.79,12.55,12.55,0,0,1-7-4.21,18.4,18.4,0,0,1-3.82-8.47,22.51,22.51,0,0,1-.2-3.87,19.39,19.39,0,0,1,7-14.5,15,15,0,0,0-.35,1.54c-.1.55-.18,1.1-.23,1.65a.39.39,0,0,0,.44.23,11.73,11.73,0,0,1,5-.88c5.2.2,9.3,3.59,9.14,7.56a6.53,6.53,0,0,1-3.25,5.18,13.29,13.29,0,0,1,4.92,3A6.66,6.66,0,0,1,38.48,31.08Z"/></svg>